<?xml version="1.0" encoding="UTF-8" standalone="no"?>
<!-- Created with Inkscape (http://www.inkscape.org/) -->

<svg
   width="128mm"
   height="64mm"
   viewBox="0 0 128 64"
   version="1.1"
   id="svg1"
   xml:space="preserve"
   xmlns="http://www.w3.org/2000/svg"
   xmlns:svg="http://www.w3.org/2000/svg"><defs
     id="defs1" /><g
     id="layer1"><g
       id="g18"
       transform="matrix(1.0657596,0,0,1.0657596,-45.576092,-100.77925)"><g
         id="text1"
         style="font-size:35.5463px;opacity:1;mix-blend-mode:color-burn;fill:#6c006c;fill-opacity:1;stroke-width:0.416558"
         aria-label="Majic0de"><path
           style="font-family:'Carbon Block';-inkscape-font-specification:'Carbon Block';fill:#427f00;fill-opacity:1"
           d="m 68.015077,144.45224 h -4.940935 v -17.31105 q 0,-1.31521 -1.492945,-1.31521 -1.421852,0 -1.421852,1.42185 v 17.20441 h -4.976482 v -17.48878 q 0,-0.49765 -0.462102,-0.81756 -0.462102,-0.31992 -0.95975,-0.31992 -1.457398,0 -1.457398,1.31521 v 17.31105 h -4.976482 v -17.20441 q 0,-2.02614 2.239417,-3.19917 1.812861,-0.95975 4.052278,-0.95975 2.488241,0 4.052278,1.17303 1.706223,-1.17303 4.158917,-1.17303 2.203871,0 4.016732,0.95975 2.168324,1.17303 2.168324,3.19917 z m 14.716175,0 h -4.940935 v -8.2112 H 74.87552 v 8.2112 h -4.976482 v -17.31105 q 0,-2.09723 2.274963,-3.19916 1.812862,-0.85312 4.158917,-0.85312 2.31051,0 4.123371,0.85312 2.274963,1.10193 2.274963,3.19916 z m -4.940935,-10.91271 v -6.50498 q 0,-1.31521 -1.457399,-1.31521 -1.457398,0 -1.457398,1.31521 v 6.50498 z m 19.088347,7.39363 q 0,3.98118 -6.433881,3.98118 -3.199166,0 -4.692111,-0.95975 -1.848408,-1.17303 -1.848408,-4.08782 v -3.48354 h 5.118667 v 4.65657 q 0,1.31521 1.421852,1.31521 1.457399,0 1.457399,-1.31521 v -17.3466 h 4.976482 z"
           id="path10" /><path
           style="font-size:41.6558px;font-family:'Carbon Block';-inkscape-font-specification:'Carbon Block';fill:#427f00;fill-opacity:1"
           d="m 103.69497,144.45224 h -4.731823 v -24.32699 h 4.731823 z"
           id="path11" /><path
           style="font-family:'Carbon Block';-inkscape-font-specification:'Carbon Block';fill:#e99103;fill-opacity:1"
           d="m 118.54667,128.13649 v 3.23471 h -4.97648 v -4.58547 c 0,-0.85311 -0.47395,-1.27967 -1.42185,-1.27967 -0.94791,0 -1.42186,0.42656 -1.42186,1.27967 v 14.25407 c 0,0.87681 0.47395,1.31521 1.42186,1.31521 0.9479,0 1.42185,-0.4384 1.42185,-1.31521 v -4.65657 h 4.97648 v 4.54993 c 0,2.72521 -2.13278,4.08782 -6.39833,4.08782 -4.26556,0 -6.39834,-1.36261 -6.39834,-4.08782 v -13.89861 c 0,-2.63043 2.13278,-3.94564 6.39834,-3.94564 4.26555,0 6.39833,1.68253 6.39833,5.04758 z"
           id="path12" /><path
           style="font-size:30.5476px;font-family:Bahnschrift;-inkscape-font-specification:Bahnschrift;fill:#e99103;fill-opacity:1"
           d="m 126.2042,144.67598 c -2.02855,0 -3.56985,-0.54194 -4.6239,-1.62583 -1.04411,-1.08388 -1.56616,-2.59535 -1.56616,-4.53441 v -9.85935 c 0,-1.949 0.52703,-3.46047 1.58108,-4.53441 1.05405,-1.08389 2.59037,-1.62583 4.60898,-1.62583 2.02855,0 3.56488,0.53697 4.60899,1.61091 1.05405,1.07394 1.58108,2.59038 1.58108,4.54933 v 9.85935 c 0,1.949 -0.52703,3.46544 -1.58108,4.54933 -1.05405,1.07394 -2.59038,1.61091 -4.60899,1.61091 z m 0,-2.89367 c 1.07394,0 1.86448,-0.27843 2.37162,-0.83529 0.51708,-0.5668 0.77562,-1.37723 0.77562,-2.43128 v -9.85935 c 0,-1.05405 -0.25357,-1.85951 -0.7607,-2.41637 -0.50714,-0.5668 -1.30265,-0.8502 -2.38654,-0.8502 -1.08388,0 -1.87939,0.2834 -2.38653,0.8502 -0.50713,0.55686 -0.7607,1.36232 -0.7607,2.41637 v 9.85935 c 0,1.05405 0.25357,1.86448 0.7607,2.43128 0.51709,0.55686 1.3126,0.83529 2.38653,0.83529 z"
           id="path13" /><path
           style="font-family:'Carbon Block';-inkscape-font-specification:'Carbon Block';fill:#e99103;fill-opacity:1"
           d="m 146.83611,139.93786 c 0,3.00959 -2.08538,4.51438 -6.25615,4.51438 H 134.0039 V 123.6932 h 6.61161 c 4.14707,0 6.2206,1.51664 6.2206,4.54993 z m -4.97648,0.63983 v -13.11658 c 0,-0.90051 -0.74647,-1.35076 -2.23942,-1.35076 h -0.67538 v 15.8181 h 0.67538 c 1.49295,0 2.23942,-0.45025 2.23942,-1.35076 z m 17.77315,3.87455 h -10.94826 v -20.72349 h 10.94826 v 2.80816 h -6.00732 v 5.2253 h 5.86514 v 2.73707 h -5.86514 v 7.10926 h 6.00732 z"
           id="path14" /><rect
           style="opacity:1;fill:#e99103;fill-opacity:1;stroke-width:0.103414"
           id="rect18"
           width="4.8356471"
           height="2.1760411"
           x="123.76104"
           y="132.76257" /></g><circle
         style="fill:#7aa54c;fill-opacity:1;stroke-width:0.318086"
         id="path6"
         cx="101.53778"
         cy="114.00658"
         r="4.8191366" /><g
         id="g14"
         transform="translate(-1.5322882,2.5123981)"><path
           style="fill:#f8b242;stroke-width:0.0753402"
           d="m 104.09919,104.16253 c -0.20447,0.20455 -0.48493,0.33102 -0.79702,0.33099 -0.62412,1e-4 -1.12801,-0.50599 -1.12833,-1.12974 l 2e-5,-2.47404 c 10e-6,-0.62406 0.50605,-1.130087 1.13009,-1.130097 0.62409,0 1.13009,0.505957 1.1301,1.130087 l -1e-5,2.47405 c 1e-4,0.31204 -0.13061,0.59455 -0.33514,0.79907 z"
           id="path4" /><path
           style="fill:#f8b242;stroke-width:0.0753402"
           d="m 98.708564,106.79789 c -0.386548,0.38662 -1.007501,0.44538 -1.463409,0.11338 l -2.420913,-1.76289 c -0.50451,-0.36737 -0.615623,-1.0743 -0.248321,-1.57876 0.367079,-0.5048 1.074271,-0.61561 1.578701,-0.2484 l 2.420921,1.76291 c 0.504615,0.36733 0.615615,1.07431 0.248314,1.57879 -0.03508,0.0487 -0.07404,0.0937 -0.115235,0.13501 z"
           id="path5" /><path
           style="fill:#f8b242;stroke-width:0.0753402"
           d="m 111.96703,105.16189 c -0.0413,0.0413 -0.0867,0.0796 -0.13496,0.11539 l -2.4209,1.76279 c -0.50459,0.36741 -1.21139,0.25615 -1.57877,-0.2483 -0.36738,-0.50452 -0.25726,-1.21198 0.24842,-1.57878 l 2.42089,-1.76276 c 0.50458,-0.36743 1.21141,-0.25616 1.57879,0.24829 0.33196,0.45586 0.27322,1.07686 -0.11337,1.46343 z"
           id="path6-0" /><g
           id="g9"
           transform="matrix(0.05327376,-0.05327375,0.05327375,0.05327376,83.438105,117.02057)">
		<path
   style="fill:#f8b242"
   d="m 161.96432,75.844327 c -3.839,0 -7.597,-1.546 -10.525,-4.475 l -25.467,-25.467 c -5.858,-5.858 -5.858,-15.356 0,-21.213 5.857,-5.857 15.356,-5.858 21.213,0 l 25.467,25.467 c 5.858,5.858 5.817,15.396 -0.041,21.254 -2.928,2.929 -6.808,4.434 -10.647,4.434 z"
   id="path7" />
		
		<path
   style="fill:#f8b242"
   d="m 329.3832,243.26321 c -3.839,0 -7.597,-1.546 -10.525,-4.475 l -25.467,-25.467 c -5.858,-5.858 -5.858,-15.356 0,-21.213 5.857,-5.857 15.356,-5.858 21.213,0 l 25.467,25.467 c 5.858,5.858 5.817,15.396 -0.041,21.254 -2.929,2.929 -6.808,4.434 -10.647,4.434 z"
   id="path9" />
	</g></g><rect
         style="opacity:0.3;mix-blend-mode:lighten;fill:#ffffff;fill-opacity:1;stroke-width:0.150019"
         id="rect17"
         width="113.6377"
         height="11.080318"
         x="46.511581"
         y="134.63878" /></g></g></svg>
